<?xml version="1.0" encoding="UTF-8" standalone="no"?>
<svg
   width="943.691"
   height="465.934"
   version="1.1"
   id="svg1"
   sodipodi:docname="CEM-LOGO-colored.svg"
   inkscape:version="1.4.2 (f4327f4, 2025-05-13)"
   xmlns:inkscape="http://www.inkscape.org/namespaces/inkscape"
   xmlns:sodipodi="http://sodipodi.sourceforge.net/DTD/sodipodi-0.dtd"
   xmlns="http://www.w3.org/2000/svg"
   xmlns:svg="http://www.w3.org/2000/svg">
  <defs
     id="defs1" />
  <sodipodi:namedview
     id="namedview1"
     pagecolor="#ffffff"
     bordercolor="#000000"
     borderopacity="0.25"
     inkscape:showpageshadow="2"
     inkscape:pageopacity="0.0"
     inkscape:pagecheckerboard="0"
     inkscape:deskcolor="#d1d1d1"
     inkscape:zoom="0.64214931"
     inkscape:cx="559.06001"
     inkscape:cy="344.93535"
     inkscape:window-width="1858"
     inkscape:window-height="1057"
     inkscape:window-x="1974"
     inkscape:window-y="-8"
     inkscape:window-maximized="1"
     inkscape:current-layer="svg1" />
  <path
     style="display:inline;fill:#563f49;fill-opacity:1;stroke-width:.81966"
     d="M119.762 467.087c-7.996-3.392-13.983-10.703-15.21-18.572l-.613-3.936 9.858.14 9.858.138 1.269 2.365c1.905 3.549 4.281 4.9 8.614 4.9 6.863 0 10.596-4.744 6.604-8.394-.885-.81-6.369-2.93-12.186-4.714-11.28-3.459-14.883-5.547-19.223-11.141-2.06-2.655-2.306-3.952-2.312-12.155-.006-11.268 1.867-15.03 9.747-19.567 12.943-7.453 30.624-5.084 38.442 5.15 2.2 2.88 5.57 11.112 5.576 13.62.001.284-4.492.432-9.985.328-9.365-.176-10.006-.276-10.303-1.613-.445-1.999-5.126-4.806-8.016-4.806-5.538 0-8.402 4.668-4.703 7.665.973.79 5.687 2.67 10.475 4.18 11.409 3.6 16.678 6.414 19.9 10.63 7.344 9.615 4.401 26.255-5.872 33.197-5.005 3.382-10.212 4.644-19.23 4.661-7.03.013-8.225-.182-12.69-2.076zm183.846-.041c-4.33-1.674-6.23-2.978-8.843-6.068-6.048-7.153-6.77-11.293-7.113-40.833l-.307-26.402h21.27l.3 26.52c.29 25.77.36 26.57 2.452 28.369 3.083 2.65 6.738 3.338 10.144 1.909 5.735-2.407 5.99-3.653 6.448-31.38l.418-25.418h20.27l-.019 23.779c-.02 25.546-1.083 33.974-5.11 40.518-4.985 8.1-12.048 11.138-25.888 11.138-7.783 0-8.976-.182-14.022-2.132zm471.121.845c-7.537-2.583-13.749-8.157-17.86-16.027-.922-1.766-2.44-7.183-3.372-12.036-1.441-7.508-1.512-9.966-.473-16.468 2.187-13.682 6.871-21.493 16.144-26.921 16.436-9.62 36.65-3.744 44.942 13.065 7.044 14.28 5.74 35.468-2.929 47.595-2.987 4.178-9.876 9.111-15.112 10.822-5.195 1.697-16.346 1.682-21.34-.03zm16.394-18.295c4.737-3.033 6.513-8.16 6.513-18.791 0-6.718-.465-10.185-1.732-12.912-4.35-9.36-13.545-10.493-19.207-2.367-2.23 3.2-2.422 4.343-2.45 14.623-.025 9.083.312 11.778 1.813 14.534 3.609 6.623 9.428 8.522 15.063 4.913zm113.414 17.645c-8.567-3.48-14.21-10.141-15.587-18.4l-.71-4.262 9.814-.083 9.814-.083 1.019 2.422c2.2 5.233 10.355 7.201 15.124 3.65 5.276-3.927 2.288-7.028-10.67-11.073-5.54-1.729-11.609-4.078-13.489-5.22-11.534-7.004-13.723-23.245-4.583-34 6.138-7.221 19.783-10.32 31.047-7.05 2.535.737 5.692 1.985 7.015 2.774 4.839 2.887 10.397 12.143 10.397 17.316v2.158h-9.73c-8.918 0-9.73-.106-9.73-1.262 0-1.838-4.928-5.298-7.546-5.298-6.657 0-9.223 5.064-4.196 8.283 1.429.915 5.923 2.653 9.986 3.863 13.506 4.02 19.007 7.752 21.842 14.822 2.267 5.654 1.506 16.467-1.52 21.572-4.69 7.916-13.264 11.808-26.014 11.808-6.563 0-8.119-.246-12.283-1.937zM9.625 431.132v-37.389h22.533v74.779H9.625Zm716.965 0v-37.389h21.134l.232 37.39.232 37.389H726.59Zm-678.3 36.245-8.962-.218v-73.416H58.51l1.595 2.788c1.788 3.126 15.368 27.41 17.882 31.978.893 1.623 1.894 3.158 2.224 3.411.329.253.437-8.234.24-18.859l-.359-19.318H100.27L100 430.64l-.27 36.898-9.669-.209-9.668-.208-2.178-3.727c-5.256-8.996-18.402-32.94-18.402-33.517 0-.35-.346-.772-.769-.94-.422-.167-.616 8.523-.432 19.312.185 10.79-.045 19.556-.512 19.482-.466-.074-4.88-.233-9.81-.354zm175.398-36.813.002-36.974 20.229.278c18.205.25 20.65.42 24.453 1.688 9.634 3.215 12.163 7.27 12.163 19.506 0 7.539-.278 8.92-2.4 11.924-1.319 1.868-3.27 3.902-4.334 4.519-1.885 1.092-1.854 1.18 1.188 3.399 1.717 1.253 3.62 3.057 4.227 4.009.608.952 1.464 6.896 1.902 13.21.439 6.313 1.117 12.29 1.507 13.283l.71 1.804h-10.243c-12.173 0-11.458.63-11.516-10.168-.065-12.305-1.944-14.756-11.707-15.274l-5.694-.303v25.658l-10.245.207-10.244.208zm33.215-5.433c3.832-1.118 6.189-5.507 4.769-8.883-1.561-3.713-3.99-4.848-11.276-5.27l-6.221-.362v7.197c0 3.959.307 7.394.683 7.635 1.112.712 9.253.498 12.045-.317zm98.316 42.133c-.235-.15-.427-16.754-.427-36.897v-36.624h25.2l3.423 14.267c1.883 7.847 4.25 17.913 5.26 22.37 1.009 4.457 2.036 8.231 2.281 8.389.245.157 1.018-2.161 1.717-5.151.698-2.99 3.062-12.9 5.252-22.02s3.982-16.87 3.982-17.219c0-.376 5.223-.636 12.803-.636h12.803v73.467h-7.598c-4.179 0-8.368.189-9.308.42-1.58.388-1.689-1.235-1.42-21.3.16-11.945.08-21.854-.176-22.018-.256-.164-2.036 6.543-3.955 14.904-5.132 22.36-6.657 28.05-7.507 28.02-.42-.014-3.691-.026-7.27-.026h-6.508l-1.243-4.756c-.684-2.616-3.044-12.545-5.244-22.066-2.2-9.52-4.144-17.402-4.32-17.515-.176-.113-.135 9.89.092 22.23l.412 22.435h-8.91c-4.902 0-9.104-.123-9.339-.274zm104.694.11-26.494-.187.376-36.721.376-36.722h51.724v17.054h-30.728v11.108l12.803-.144 12.803-.144v17.386h-25.606v11.151h31.752v8.855c0 4.87-.115 8.787-.256 8.703-.141-.084-12.179-.236-26.75-.339zm41.601-.025-9.474-.188v-73.465l9.862.188 9.862.187 6.055 10.824c8.161 14.589 11.94 21.4 13.832 24.926.87 1.623 1.71 3.04 1.867 3.15.156.11.037-8.672-.265-19.514l-.548-19.714h20.789v36.624c0 20.143-.19 36.747-.422 36.897-.232.15-4.76.18-10.06.067l-9.638-.206-4.895-8.649A2022.003 2022.003 0 0 1 518 439.66c-3.07-5.592-5.904-10.375-6.297-10.628-.394-.253-.578 5.945-.41 13.775.168 7.83.168 16.597 0 19.483l-.306 5.248zm106.262-.993c.001-.65 3.436-12.309 7.632-25.91 4.196-13.6 9.137-29.672 10.979-35.715l3.35-10.988h10.51c10.06 0 10.533.064 11.042 1.476.292.812 4.244 13.578 8.781 28.37 4.538 14.792 9.377 30.562 10.755 35.045 1.377 4.484 2.504 8.321 2.503 8.528 0 .207-4.6.376-10.218.376-11.542 0-10.349.649-11.804-6.418l-.646-3.138-10.43.186-10.43.186-.922 4.387-.921 4.386-10.092.205c-9.155.187-10.09.096-10.089-.976zm38.487-25.548c-.261-.812-1.456-5.756-2.655-10.987-1.198-5.232-2.443-10.25-2.766-11.151-.587-1.636-.59-1.636-1.407.327-.798 1.918-5.03 20.832-5.028 22.467.001.565 1.918.82 6.167.82 5.851 0 6.14-.075 5.69-1.476zm36.707 26.456c-.232-.15-.422-12.326-.422-27.057v-26.785h-18.436V393.743h58.381V413.422H702.988l.278 26.854.279 26.854-10.076.204c-5.542.112-10.267.08-10.499-.07zm149.884.113-9.986-.215V393.743h19.997l8.85 15.907c4.868 8.749 9.695 17.457 10.727 19.35 1.032 1.895 2.114 3.445 2.404 3.445.29 0 .393-8.707.228-19.35l-.3-19.352H884.34l-.264 36.831-.265 36.83-9.218-.137c-5.07-.076-9.544-.344-9.943-.595-.682-.43-4.26-6.726-15.72-27.668-2.665-4.87-5.17-9.09-5.567-9.379-.397-.287-.497 8.199-.224 18.859.274 10.66.32 19.32.1 19.244-.218-.075-4.891-.233-10.384-.351zm-652.182-27.061v-26.894h-18.436V393.743H220.618V413.422H202.18v53.788h-21.509zm394.331 0v-26.894h-18.436V393.743h58.381V413.422h-18.436v53.788h-21.509Zm-428.13-66.317c-49.357-2.671-80.497-17.78-105.994-51.426-18.59-24.532-30.436-52.72-35.286-83.962-.616-3.968-1.335-8.543-1.599-10.167C2.546 219.526 2 208.764 1.98 188.76c-.027-26.715 1.217-41.563 5.056-60.347C20.39 63.062 57.4 21.237 113.93 7.61c14.517-3.5 22.824-4.328 43.696-4.357 17.84-.025 20.334.118 29.945 1.718 18.645 3.103 31.214 7.049 43.576 13.68 29.924 16.05 51.356 45.297 65.3 89.11 1.743 5.478 2.899 10.134 2.567 10.346-1.03.66-84.923 22.44-86.436 22.44-.468 0-1.446-2.14-2.173-4.756-6.79-24.444-20.452-39.33-40.17-43.768-7.384-1.662-18.116-1.272-25.938.944-18.528 5.248-33.002 22.292-38.904 45.816-6.505 25.925-6.275 78.09.46 104.42 6.982 27.295 22.872 41.55 47.676 42.774 18.124.893 32.715-4.96 42.022-16.858 7.661-9.795 15.777-30.21 18.44-46.385.369-2.238 1.204-4.35 1.856-4.69 1.073-.563 11.126-3.536 69.552-20.564l18.18-5.3.154-37.131c.084-20.423.199-61.632.256-91.576l.103-54.444h255.815l.122 48.704.122 48.704h-157.22v28.206c0 15.514.21 28.206.466 28.206.257 0 19.73-5.644 43.274-12.543 23.544-6.9 49.721-14.535 58.17-16.969 47.113-13.57 63.916-18.685 91.67-27.905 10.422-3.462 39.343-12.938 64.27-21.058 24.928-8.12 45.323-14.88 45.323-15.023 0-.143-4.494 1.089-9.986 2.737-5.493 1.648-11.83 3.516-14.083 4.152-5.582 1.573-75.665 21.89-97.815 28.356-9.858 2.878-18.5 5.387-19.204 5.575-1.018.272-1.28-10.093-1.28-50.564V8.701h174.802c96.142 0 174.526.178 174.187.395-.34.217-5.464 1.809-11.39 3.537-11.338 3.308-14.042 4.447-59.007 24.843-164.992 74.84-308.457 142.267-416.563 195.78l-22.743 11.259-.046 18.858-.045 18.859h160.805l.035-48.048.035-48.049 17.12-7.312c9.417-4.021 38.705-16.666 65.085-28.1 26.38-11.432 48.115-20.687 48.3-20.565.184.122 4.1 9.372 8.7 20.556a24989.211 24989.211 0 0 0 20.01 48.54c3.726 9.02 8.402 20.384 10.39 25.254 1.99 4.87 3.79 8.97 4.002 9.11.212.141.81-.45 1.33-1.311 2.525-4.185 42.504-65.388 43.564-66.69l1.217-1.496 63.202-.144 63.201-.144v204.299l-40.588.179c-31.195.137-40.699-.007-41.067-.622-.263-.44-.32-21.741-.125-47.337.194-25.596.268-46.483.164-46.416-.105.066-7.86 13.25-17.234 29.299-32.83 56.203-38.08 65.004-38.748 64.965-.37-.021-16.69-.042-36.266-.047l-35.592-.008-5.547-9.667c-13.035-22.716-47.845-81.913-48.761-82.923-.656-.723-.903 15.037-.718 45.752l.282 46.854H303.512l.29-34.817.29-34.818-7.708 5.136c-4.24 2.825-10.462 7.89-13.827 11.255-33.978 33.982-46.192 43.768-62.6 50.151-18.688 7.27-44.805 10.462-73.084 8.931zm40.457-7.494c4.507-.596 11.832-1.98 16.278-3.077 21.96-5.416 34.363-13.103 57.444-35.605 27.796-27.098 26.3-25.818 41.15-35.195 27.736-17.514 71.11-40.478 153.366-81.197 63.172-31.272 191.92-91.85 308.407-145.108 36.053-16.484 66.472-30.447 67.599-31.03 1.127-.583-1.408.095-5.633 1.505-4.225 1.411-19.205 6.338-33.288 10.95C757.37 59.3 705.876 76.2 630.312 101.028c-35.208 11.569-71.85 23.303-81.427 26.077-15.47 4.48-22.402 6.508-48.651 14.23-3.662 1.077-21.868 6.399-40.457 11.826a194186.908 194186.908 0 0 0-139.809 40.864c-19.434 5.69-49.854 14.57-67.6 19.732-17.744 5.163-32.566 9.768-32.937 10.233-.372.465-1.435 4.388-2.363 8.717-3.445 16.062-10.31 31.389-18.791 41.954-10.262 12.782-26.305 18.952-46.155 17.752-23.79-1.439-41.573-15.988-49.134-40.198-5.813-18.614-6.821-28.2-6.776-64.44.04-32.98.732-39.792 5.72-56.344 6.813-22.61 21.982-38.96 41.603-44.844 6.11-1.832 7.944-2.073 15.628-2.048 9.434.03 13.227.783 21.892 4.344 13.974 5.743 27.384 21.736 32.156 38.347.963 3.355 2.026 6.1 2.361 6.1.336 0 11.633-2.898 25.105-6.441 13.472-3.543 30.602-8.003 38.066-9.91 7.464-1.908 13.571-3.745 13.571-4.082 0-2.356-7.666-22.983-11.412-30.707-17.514-36.109-41.65-57.32-76.424-67.162-24.17-6.841-60.247-7.468-87.381-1.518C40.67 30.269 1.353 100.228 7.617 208.313c2.494 43.017 11.347 71.841 31.367 102.125 10.601 16.035 22.613 28.1 37.223 37.389 18.011 11.45 38.175 17.311 67.593 19.648 10.635.845 33.687.331 43.53-.97zm372.31-41.144v-36.897l-80.915.175-80.915.176v-41.412l-16.131 8.357c-22.775 11.797-42.575 22.442-58.638 31.525l-13.827 7.818-.265 33.577-.266 33.578H559.64zm81.033-17.383c.065-29.854.34-53.69.612-52.968.272.722 13.153 23.008 28.626 49.524 15.473 26.517 29.37 50.35 30.883 52.961l2.75 4.749 33.323.007 33.323.007 11.653-19.843c6.41-10.913 14.553-24.86 18.097-30.993 3.543-6.134 12.434-21.335 19.758-33.782l13.315-22.63.049 53.624.048 53.624h71.697V170.72h-58.894c-32.391 0-59.237-.074-59.656-.164-.42-.09-3.123 3.525-6.006 8.035-5.551 8.683-25.1 38.732-35.206 54.116-3.318 5.05-6.512 9.995-7.097 10.987-.586.992-1.435 1.804-1.888 1.804-.452 0-1.36-1.993-2.018-4.428-.657-2.435-3.085-8.855-5.395-14.267a1609.152 1609.152 0 0 1-7.158-17.054c-25.59-62.396-29.244-71.083-30.151-71.664-.254-.162-1.99.433-3.858 1.323-6.228 2.967-115.779 50.432-117.212 50.784-1.188.292-1.41 13.892-1.41 86.206v85.859h71.696zm-320.6-120.771c23.382-7.01 27.536-8.232 40.353-11.882 7.323-2.086 17.002-4.889 21.509-6.229 4.506-1.34 9.947-2.89 12.09-3.443l3.897-1.007-.12-6.31c-.065-3.47-.09-18.047-.055-32.392l.063-26.082 78.354.172 78.355.172V15.261H308.701v87.569c0 48.163.162 87.57.36 87.57.2 0 5.154-1.437 11.011-3.193zm261.597-88.65a3051.104 3051.104 0 0 1 20.475-5.894c7.324-2.083 16.542-4.739 20.485-5.902a6129.563 6129.563 0 0 1 22.79-6.634l31.238-9.038c8.591-2.485 18.846-5.471 22.79-6.636a1767.546 1767.546 0 0 1 15.875-4.58 1538.313 1538.313 0 0 0 17.77-5.171c4.985-1.49 9.203-2.708 9.373-2.708.17 0 4.34-1.204 9.268-2.676 4.928-1.472 15.045-4.4 22.483-6.508 7.437-2.107 17.554-5.035 22.482-6.507 4.928-1.472 9.11-2.676 9.292-2.676.182 0 5.242-1.476 11.244-3.28 6.002-1.803 11.061-3.28 11.244-3.28.182 0 4.274-1.177 9.093-2.616 4.819-1.44 13.482-3.957 19.251-5.595 5.77-1.638 10.701-3.114 10.959-3.279.258-.165-66.895-.306-149.228-.312l-149.696-.012v87.283l2.826-.936c1.555-.515 6.048-1.885 9.986-3.044zm223.786 56.85c0-.125.659-1.085 1.464-2.132.806-1.048 3.052-4.119 4.993-6.825 1.94-2.705 8.018-11.118 13.505-18.694 11.377-15.708 20.877-28.832 48.432-66.907a98072.194 98072.194 0 0 1 27.307-37.715c4.313-5.951 8.166-11.028 8.562-11.282.397-.254.602 31.993.456 71.66l-.265 72.122h-52.227c-28.725 0-52.227-.102-52.227-.227zm99.35-66.586c0-33.363-.28-60.48-.625-60.259-.345.22-2.135 2.557-3.978 5.193-6.661 9.525-13.773 19.44-22.02 30.702-4.623 6.313-10.385 14.283-12.804 17.71-2.419 3.428-14.124 19.663-26.012 36.078-11.888 16.415-21.616 30.051-21.617 30.303-.005.782 9.437.965 48.904.949l38.153-.016z"
     transform="translate(-1.979 -3.25)"
     id="path1" />
  <path
     style="fill:#ef8e01;stroke-width:1.55727;fill-opacity:1"
     d="M 307.56087,99.831905 V 13.236797 H 429.80658 552.05229 V 54.504458 95.772119 H 473.41015 394.768 v 32.425771 32.42578 l -41.65698,12.1561 c -22.91134,6.68586 -42.53294,12.49161 -43.60356,12.90167 -1.54287,0.59094 -1.94659,-17.21399 -1.94659,-85.849535 z"
     id="path2" />
  <path
     style="fill:#ef8e01;fill-opacity:1;stroke-width:1.55727"
     d="M 123.80298,361.33157 C 78.981763,353.95785 48.147743,330.25637 25.823212,286.01653 0.79442723,236.41777 -1.067329,147.01847 21.779184,91.827151 39.836013,48.206482 72.804449,20.263104 117.5739,10.633497 c 19.6853,-4.2341743 62.94653,-3.7587833 80.19942,0.881299 33.47115,9.001908 55.8676,26.000432 73.79916,56.012326 7.31271,12.239221 18.54285,39.980538 16.86429,41.659098 -0.87929,0.87929 -70.65072,19.25995 -73.1827,19.27934 -0.66357,0.005 -1.91813,-1.91789 -2.78789,-4.27326 -6.66409,-18.04663 -19.62967,-33.286724 -33.70595,-39.618876 -5.76293,-2.592428 -10.65585,-3.383299 -21.50342,-3.475723 -12.84809,-0.10947 -14.92629,0.315017 -24.4255,4.989091 -18.11718,8.914536 -29.19848,24.427468 -35.615068,49.858218 -3.002604,11.90018 -3.2125,16.26652 -2.657548,55.2831 0.581654,40.89395 0.746195,42.79429 4.746667,54.82059 7.130209,21.43499 15.548459,31.73926 32.283969,39.51685 7.30801,3.39628 10.73614,3.97725 23.35906,3.95867 15.98337,-0.0235 24.57888,-2.68926 35.47893,-11.00315 9.89854,-7.54998 21.23915,-29.42195 25.46004,-49.10324 1.29733,-6.04928 2.50339,-8.02173 5.63226,-9.21132 2.18977,-0.83256 77.28025,-22.93658 166.86773,-49.12005 C 554.5803,122.5137 574.74728,116.28331 720.21507,68.571446 766.02541,53.546146 804.039,41.431274 804.68969,41.649507 805.34038,41.867741 786.07925,51.103151 761.88717,62.172639 539.10638,164.1097 372.42125,245.35051 310.05233,282.3928 c -16.71979,9.93026 -24.16678,15.71827 -44.40341,34.51169 -13.37295,12.41923 -26.75761,24.40812 -29.74369,26.64197 -8.67264,6.48791 -21.15707,12.24682 -33.99875,15.68319 -15.63036,4.18262 -58.4512,5.33502 -78.1035,2.10192 z"
     id="path3" />
  <path
     style="fill:#ef8e01;fill-opacity:1;stroke-width:1.55727"
     d="m 307.56087,325.75225 v -33.19854 l 21.41246,-11.82861 c 25.85636,-14.28349 63.32815,-33.89777 64.75947,-33.89777 0.56936,0 1.0352,8.75965 1.0352,19.46588 v 19.46588 h 80.97805 80.97805 v 36.59585 36.59585 H 432.14249 307.56087 Z"
     id="path4" />
  <path
     style="fill:#ef8e01;fill-opacity:1;stroke-width:1.55727"
     d="m 567.625,275.15584 c 0,-64.65824 0.44455,-84.36855 1.94658,-86.3066 1.07063,-1.38141 6.50161,-4.40098 12.06885,-6.71017 5.56724,-2.30918 31.77303,-13.61449 58.2351,-25.12289 26.46206,-11.50841 48.68927,-20.34794 49.3938,-19.64342 1.32222,1.32223 33.43169,78.0688 39.60433,94.6605 1.91188,5.13899 4.3857,9.34362 5.49737,9.34362 1.11167,0 12.60808,-16.2656 25.54758,-36.14578 12.9395,-19.88018 23.9764,-36.59582 24.52644,-37.14586 0.55005,-0.55004 27.32349,-0.48274 59.49655,0.14956 l 58.49649,1.14963 v 94.78318 94.78318 h -35.03858 -35.03858 v -53.72583 c 0,-29.5492 -0.52558,-53.71745 -1.16795,-53.70723 -0.64237,0.0102 -15.21127,24.01165 -32.37535,53.33651 l -31.2074,53.31791 -32.64068,0.38762 -32.64068,0.38762 -31.07236,-53.72412 c -17.08979,-29.54827 -31.6308,-53.72413 -32.31335,-53.72413 -0.68255,0 -1.241,24.17662 -1.241,53.72582 v 53.72583 H 602.66358 567.625 Z"
     id="path5" />
  <path
     style="fill:#ef8e01;fill-opacity:1;stroke-width:1.55727"
     d="M 567.625,55.451913 V 13.236797 l 145.21544,0.122942 c 79.8685,0.06762 144.51468,0.409053 143.65818,0.758745 -1.79791,0.734055 -279.71344,81.249487 -285.2179,82.631018 L 567.625,97.66703 Z"
     id="path6" />
  <path
     style="fill:#ef8e01;fill-opacity:1;stroke-width:1.55727"
     d="m 820.19461,140.54364 c 2.07682,-2.78362 20.77654,-28.71217 41.55494,-57.619001 20.77839,-28.906828 38.43356,-52.55787 39.23372,-52.55787 0.87537,0 1.45482,22.949358 1.45482,57.618999 v 57.619002 h -43.00976 -43.00976 z"
     id="path7" />
</svg>
